<svg id="visual" viewBox="0 0 900 300" width="900" height="300" xmlns="http://www.w3.org/2000/svg" xmlns:xlink="http://www.w3.org/1999/xlink" version="1.1"><rect x="0" y="0" width="900" height="300" fill="#305f72"></rect><path d="M0 137L129 161L257 168L386 140L514 191L643 223L771 201L900 173L900 0L771 0L643 0L514 0L386 0L257 0L129 0L0 0Z" fill="#f5730a"></path><path d="M0 169L129 131L257 179L386 129L514 149L643 181L771 197L900 149L900 0L771 0L643 0L514 0L386 0L257 0L129 0L0 0Z" fill="#f04b74"></path><path d="M0 79L129 126L257 93L386 127L514 153L643 152L771 155L900 125L900 0L771 0L643 0L514 0L386 0L257 0L129 0L0 0Z" fill="#a85ca8"></path><path d="M0 57L129 84L257 54L386 65L514 81L643 71L771 116L900 71L900 0L771 0L643 0L514 0L386 0L257 0L129 0L0 0Z" fill="#4e67a1"></path><path d="M0 47L129 46L257 32L386 68L514 42L643 31L771 36L900 26L900 0L771 0L643 0L514 0L386 0L257 0L129 0L0 0Z" fill="#305f72"></path></svg>