<svg id="visual" viewBox="0 0 900 300" width="900" height="300" xmlns="http://www.w3.org/2000/svg" xmlns:xlink="http://www.w3.org/1999/xlink" version="1.1"><rect x="0" y="0" width="900" height="300" fill="#305f72"></rect><path d="M0 161L129 137L257 130L386 158L514 107L643 75L771 97L900 125L900 301L771 301L643 301L514 301L386 301L257 301L129 301L0 301Z" fill="#f5730a"></path><path d="M0 129L129 167L257 119L386 169L514 149L643 117L771 101L900 149L900 301L771 301L643 301L514 301L386 301L257 301L129 301L0 301Z" fill="#f04b74"></path><path d="M0 219L129 172L257 205L386 171L514 145L643 146L771 143L900 173L900 301L771 301L643 301L514 301L386 301L257 301L129 301L0 301Z" fill="#a85ca8"></path><path d="M0 241L129 214L257 244L386 233L514 217L643 227L771 182L900 227L900 301L771 301L643 301L514 301L386 301L257 301L129 301L0 301Z" fill="#4e67a1"></path><path d="M0 251L129 252L257 266L386 230L514 256L643 267L771 262L900 272L900 301L771 301L643 301L514 301L386 301L257 301L129 301L0 301Z" fill="#305f72"></path></svg>